<svg version="1.0" xmlns="http://www.w3.org/2000/svg" width="682.667" height="682.667" viewBox="0 0 512 512"><path d="M2 40.8c0 .3 13.2 47.7 15.6 55.7.8 2.7 5.5 19.6 10.4 37.5s9.8 35.4 10.9 39c2.3 7.9 8.8 31.1 11.2 40 .9 3.6 4 14.8 6.9 25 5 17.8 7.3 26.1 9 32.5 1 3.8 10.4 37.2 21.5 77 4.8 17 8.8 31.7 9 32.5.5 2.2 8.3 29.9 9.4 33.5.5 1.6 3.1 10.8 5.7 20.2l4.7 17.3h53.2l7.3-27.3c4.1-14.9 10.2-37.8 13.7-50.7 8.1-29.9 17.6-65.1 18-67 .2-.8 2.4-8.9 4.9-18 7.5-27.8 26.8-99.4 27.1-101 .2-.8 2.5-9.2 5-18.5 6.5-23.7 9.1-35.4 10.5-47 1.4-11.6 2.9-15.7 3-7.9 0 7.2 2.6 24.6 5 33.9 5.4 20.7 6.3 23.8 21.6 81 5.8 21.4 11.4 42.1 12.4 46 2.4 9.6 6.4 24.4 8.9 33.8 1.2 4.4 3.5 12.9 5.1 19 1.7 6.2 3.4 12.8 4 14.7 1.5 5.3 7.1 26 7.5 27.9.2.9 1.1 4.1 1.9 7.1.8 3 2.7 10 4.2 15.5 3.1 11.5 6.8 25.8 11.3 43 1.8 6.6 3.4 12.8 3.7 13.7.5 1.7 2.7 1.8 27.4 1.8h26.9l1-3.8c.6-2 2.2-8 3.6-13.2 1.4-5.2 2.8-10.2 2.9-11 .2-.8 2.9-10.7 5.9-22 3.1-11.3 6.5-23.9 7.6-28 2.2-8.4 12.1-45.1 23.6-88 4.2-15.7 7.8-29.2 8-30 .2-.8 1.8-6.5 3.5-12.5 1.6-6.1 3.2-11.9 3.5-13 .2-1.1 2.7-10.3 5.4-20.5 2.8-10.2 6.9-25.3 9-33.5 2.2-8.3 7.4-27.6 11.6-43 4.1-15.4 10.7-39.9 14.7-54.5 3.9-14.6 7.7-28.7 8.4-31.4.8-2.7 1.1-5.2.8-5.5-.6-.7-47.3-.8-48.3-.1-.4.3-5 17.1-10.1 37.5-5.1 20.3-12.4 49.1-16.2 64-3.8 14.8-7 27.8-7.3 28.7-.2.9-3.8 15.3-8 32s-7.8 31-8 31.8c-.2.8-3.5 14.1-7.4 29.6-3.9 15.4-7.4 28.9-7.6 30-.2 1-4.5 18.1-9.5 37.9-5 19.8-9.3 37.1-9.6 38.5-1.1 5.4-2.4 13.7-3 18.5-.7 5.5-2.4 8.5-2.5 4.4 0-1.3-.2-3.3-.4-4.4-.2-1.1-.7-4.9-1.1-8.5-.3-3.6-.8-6.8-1-7.1-.2-.3-.6-2.1-.9-4-.7-3.8-5.5-23.1-11.3-45.4-2.2-8.3-6.5-24.7-9.6-36.5-3.1-11.8-7.4-28.5-9.7-37-2.2-8.5-4.2-16.3-4.5-17.3-.2-.9-.6-2.5-.8-3.5-.3-.9-2.5-9.4-4.9-18.7-2.5-9.4-6.4-24.2-8.7-33-2.2-8.8-5.2-20.1-6.5-25-1.3-5-4.2-16.2-6.5-25s-5.3-20.3-6.7-25.5c-4-15.2-8-30.4-11.9-46-2-8-4-14.9-4.5-15.4s-10.4-1-22-1c-20.3-.1-21.2-.1-22 1.9-.8 1.7-13.6 47.5-14.4 51.5-.4 1.7-4.8 18-7 25.5-.8 2.7-2 7-2.6 9.5-.7 2.5-1.3 4.7-1.4 5-.1.3-.5 1.8-1 3.5-.4 1.6-3 11.1-5.7 21-2.8 9.9-5.6 20.2-6.3 23-1.7 6.1-4.6 16.9-17 62-5.3 19.2-10.2 37.2-11 40-.7 2.7-5.2 19.2-10 36.5-11.1 40.4-15.1 56.5-16.6 67-1.2 8.4-2.8 12.7-3 8 0-1.4-.2-3.4-.4-4.5s-.7-4.5-1-7.5c-.5-4.8-1.6-11.8-2.9-18.7-.4-2-6.3-24.8-10.8-41.3-2.3-8.8-9.1-34.6-15.2-58-2.4-9.1-8.3-31.4-13.1-49.5-4.8-18.2-8.9-33.7-9-34.5-.2-.8-3.1-11.8-6.5-24.4-3.4-12.7-6.3-23.7-6.5-24.5-.2-.9-.9-3.6-1.6-6.1-.7-2.5-1.3-5-1.5-5.5-.2-1.2-5.8-22.4-12.9-49-2.4-8.8-5.1-19.3-6-23.3-1-3.9-2.3-7.2-2.9-7.3C49 40.6 2 40.5 2 40.8z"/></svg>