<?xml version="1.0" standalone="no"?>
<!DOCTYPE svg PUBLIC "-//W3C//DTD SVG 20010904//EN"
 "http://www.w3.org/TR/2001/REC-SVG-20010904/DTD/svg10.dtd">
<svg version="1.0" xmlns="http://www.w3.org/2000/svg"
 width="512.000000pt" height="512.000000pt" viewBox="0 0 512.000000 512.000000"
 preserveAspectRatio="xMidYMid meet">
<metadata>
Created by potrace 1.11, written by Peter Selinger 2001-2013
</metadata>
<g transform="translate(0.000000,512.000000) scale(0.100000,-0.100000)"
fill="#000000" stroke="none">
<path d="M20 4712 c0 -3 132 -477 156 -557 8 -27 55 -196 104 -375 49 -179 98
-354 109 -390 23 -79 88 -311 112 -400 9 -36 40 -148 69 -250 50 -178 73 -261
90 -325 10 -38 104 -372 215 -770 48 -170 88 -317 90 -325 5 -22 83 -299 94
-335 5 -16 31 -108 57 -202 l47 -173 266 0 266 0 73 273 c41 149 102 378 137
507 81 299 176 651 180 670 2 8 24 89 49 180 75 278 268 994 271 1010 2 8 25
92 50 185 65 237 91 354 105 470 14 116 29 157 30 79 0 -72 26 -246 50 -339
54 -207 63 -238 216 -810 58 -214 114 -421 124 -460 24 -96 64 -244 89 -338
12 -44 35 -129 51 -190 17 -62 34 -128 40 -147 15 -53 71 -260 75 -279 2 -9
11 -41 19 -71 8 -30 27 -100 42 -155 31 -115 68 -258 113 -430 18 -66 34 -128
37 -137 5 -17 27 -18 274 -18 l269 0 10 38 c6 20 22 80 36 132 14 52 28 102
29 110 2 8 29 107 59 220 31 113 65 239 76 280 22 84 121 451 236 880 42 157
78 292 80 300 2 8 18 65 35 125 16 61 32 119 35 130 2 11 27 103 54 205 28
102 69 253 90 335 22 83 74 276 116 430 41 154 107 399 147 545 39 146 77 287
84 314 8 27 11 52 8 55 -6 7 -473 8 -483 1 -4 -3 -50 -171 -101 -375 -51 -203
-124 -491 -162 -640 -38 -148 -70 -278 -73 -287 -2 -9 -38 -153 -80 -320 -42
-167 -78 -310 -80 -318 -2 -8 -35 -141 -74 -296 -39 -154 -74 -289 -76 -300
-2 -10 -45 -181 -95 -379 -50 -198 -93 -371 -96 -385 -11 -54 -24 -137 -30
-185 -7 -55 -24 -85 -25 -44 0 13 -2 33 -4 44 -2 11 -7 49 -11 85 -3 36 -8 68
-10 71 -2 3 -6 21 -9 40 -7 38 -55 231 -113 454 -22 83 -65 247 -96 365 -31
118 -74 285 -97 370 -22 85 -42 163 -45 173 -2 9 -6 25 -8 35 -3 9 -25 94 -49
187 -25 94 -64 242 -87 330 -22 88 -52 201 -65 250 -13 50 -42 162 -65 250
-23 88 -53 203 -67 255 -40 152 -80 304 -119 460 -20 80 -40 149 -45 154 -5 5
-104 10 -220 10 -203 1 -212 1 -220 -19 -8 -17 -136 -475 -144 -515 -4 -17
-48 -180 -70 -255 -8 -27 -20 -70 -26 -95 -7 -25 -13 -47 -14 -50 -1 -3 -5
-18 -10 -35 -4 -16 -30 -111 -57 -210 -28 -99 -56 -202 -63 -230 -17 -61 -46
-169 -170 -620 -53 -192 -102 -372 -110 -400 -7 -27 -52 -192 -100 -365 -111
-404 -151 -565 -166 -670 -12 -84 -28 -127 -30 -80 0 14 -2 34 -4 45 -2 11 -7
45 -10 75 -5 48 -16 118 -29 187 -4 20 -63 248 -108 413 -23 88 -91 346 -152
580 -24 91 -83 314 -131 495 -48 182 -89 337 -90 345 -2 8 -31 118 -65 244
-34 127 -63 237 -65 245 -2 9 -9 36 -16 61 -7 25 -13 50 -15 55 -2 12 -58 224
-129 490 -24 88 -51 193 -60 233 -10 39 -23 72 -29 73 -26 3 -496 4 -496 1z"/>
</g>
</svg>
